<svg width="20" height="20" viewBox="0 0 20 20" fill="none" xmlns="http://www.w3.org/2000/svg">
<path d="M9.91667 12.4167C11.2974 12.4167 12.4167 11.2974 12.4167 9.91667C12.4167 8.53596 11.2974 7.41667 9.91667 7.41667C8.53596 7.41667 7.41667 8.53596 7.41667 9.91667C7.41667 11.2974 8.53596 12.4167 9.91667 12.4167Z" stroke="#F2F2F7" stroke-width="1.5" stroke-linecap="round" stroke-linejoin="round"/>
<path d="M16.0833 12.4167C15.9724 12.668 15.9393 12.9468 15.9883 13.2172C16.0373 13.4875 16.1662 13.7369 16.3583 13.9333L16.4083 13.9833C16.5633 14.1381 16.6862 14.3219 16.7701 14.5243C16.854 14.7266 16.8971 14.9435 16.8971 15.1625C16.8971 15.3815 16.854 15.5984 16.7701 15.8007C16.6862 16.0031 16.5633 16.1869 16.4083 16.3417C16.2535 16.4966 16.0697 16.6196 15.8674 16.7034C15.6651 16.7873 15.4482 16.8305 15.2292 16.8305C15.0101 16.8305 14.7933 16.7873 14.5909 16.7034C14.3886 16.6196 14.2048 16.4966 14.05 16.3417L14 16.2917C13.8036 16.0996 13.5542 15.9707 13.2838 15.9217C13.0135 15.8726 12.7347 15.9057 12.4833 16.0167C12.2369 16.1223 12.0267 16.2977 11.8786 16.5213C11.7305 16.7449 11.6511 17.0068 11.65 17.275V17.4167C11.65 17.8587 11.4744 18.2826 11.1618 18.5952C10.8493 18.9077 10.4254 19.0833 9.98333 19.0833C9.54131 19.0833 9.11738 18.9077 8.80482 18.5952C8.49226 18.2826 8.31667 17.8587 8.31667 17.4167V17.3417C8.31021 17.0658 8.22093 16.7983 8.06043 16.5739C7.89992 16.3495 7.67561 16.1786 7.41667 16.0833C7.16532 15.9724 6.88651 15.9393 6.61618 15.9883C6.34585 16.0373 6.0964 16.1662 5.9 16.3583L5.85 16.4083C5.69521 16.5633 5.5114 16.6862 5.30907 16.7701C5.10674 16.854 4.88986 16.8971 4.67083 16.8971C4.45181 16.8971 4.23493 16.854 4.0326 16.7701C3.83027 16.6862 3.64646 16.5633 3.49167 16.4083C3.33671 16.2535 3.21377 16.0697 3.1299 15.8674C3.04603 15.6651 3.00286 15.4482 3.00286 15.2292C3.00286 15.0101 3.04603 14.7933 3.1299 14.5909C3.21377 14.3886 3.33671 14.2048 3.49167 14.05L3.54167 14C3.73378 13.8036 3.86265 13.5542 3.91167 13.2838C3.96069 13.0135 3.9276 12.7347 3.81667 12.4833C3.71103 12.2369 3.53563 12.0267 3.31205 11.8786C3.08848 11.7305 2.82649 11.6511 2.55833 11.65H2.41667C1.97464 11.65 1.55072 11.4744 1.23816 11.1618C0.925595 10.8493 0.75 10.4254 0.75 9.98333C0.75 9.54131 0.925595 9.11738 1.23816 8.80482C1.55072 8.49226 1.97464 8.31667 2.41667 8.31667H2.49167C2.7675 8.31021 3.035 8.22093 3.25942 8.06043C3.48383 7.89992 3.65476 7.67561 3.75 7.41667C3.86093 7.16532 3.89402 6.88651 3.845 6.61618C3.79599 6.34585 3.66711 6.0964 3.475 5.9L3.425 5.85C3.27004 5.69521 3.14711 5.5114 3.06323 5.30907C2.97936 5.10674 2.93619 4.88986 2.93619 4.67083C2.93619 4.45181 2.97936 4.23493 3.06323 4.0326C3.14711 3.83027 3.27004 3.64646 3.425 3.49167C3.57979 3.33671 3.7636 3.21377 3.96593 3.1299C4.16826 3.04603 4.38514 3.00286 4.60417 3.00286C4.82319 3.00286 5.04007 3.04603 5.2424 3.1299C5.44473 3.21377 5.62854 3.33671 5.78333 3.49167L5.83333 3.54167C6.02973 3.73378 6.27918 3.86265 6.54951 3.91167C6.81984 3.96069 7.09865 3.9276 7.35 3.81667H7.41667C7.66314 3.71103 7.87335 3.53563 8.02141 3.31205C8.16947 3.08848 8.24893 2.82649 8.25 2.55833V2.41667C8.25 1.97464 8.4256 1.55072 8.73816 1.23816C9.05072 0.925595 9.47464 0.75 9.91667 0.75C10.3587 0.75 10.7826 0.925595 11.0952 1.23816C11.4077 1.55072 11.5833 1.97464 11.5833 2.41667V2.49167C11.5844 2.75982 11.6639 3.02181 11.8119 3.24539C11.96 3.46896 12.1702 3.64436 12.4167 3.75C12.668 3.86093 12.9468 3.89402 13.2172 3.845C13.4875 3.79599 13.7369 3.66711 13.9333 3.475L13.9833 3.425C14.1381 3.27004 14.3219 3.14711 14.5243 3.06323C14.7266 2.97936 14.9435 2.93619 15.1625 2.93619C15.3815 2.93619 15.5984 2.97936 15.8007 3.06323C16.0031 3.14711 16.1869 3.27004 16.3417 3.425C16.4966 3.57979 16.6196 3.7636 16.7034 3.96593C16.7873 4.16826 16.8305 4.38514 16.8305 4.60417C16.8305 4.82319 16.7873 5.04007 16.7034 5.2424C16.6196 5.44473 16.4966 5.62854 16.3417 5.78333L16.2917 5.83333C16.0996 6.02973 15.9707 6.27918 15.9217 6.54951C15.8726 6.81984 15.9057 7.09865 16.0167 7.35V7.41667C16.1223 7.66314 16.2977 7.87335 16.5213 8.02141C16.7449 8.16947 17.0068 8.24893 17.275 8.25H17.4167C17.8587 8.25 18.2826 8.4256 18.5952 8.73816C18.9077 9.05072 19.0833 9.47464 19.0833 9.91667C19.0833 10.3587 18.9077 10.7826 18.5952 11.0952C18.2826 11.4077 17.8587 11.5833 17.4167 11.5833H17.3417C17.0735 11.5844 16.8115 11.6639 16.5879 11.8119C16.3644 11.96 16.189 12.1702 16.0833 12.4167Z" stroke="#F2F2F7" stroke-width="1.5" stroke-linecap="round" stroke-linejoin="round"/>
</svg>
